<svg width="1200" height="630" viewBox="0 0 1200 630" fill="none" xmlns="http://www.w3.org/2000/svg">
  <rect width="1200" height="630" fill="#100E08"/>
  <rect width="1200" height="8" fill="#D8B957"/>
  <g opacity=".08" stroke="#F5E6A8">
    <path d="M0 98H1200M0 188H1200M0 278H1200M0 368H1200M0 458H1200M0 548H1200"/>
    <path d="M92 0V630M182 0V630M272 0V630M362 0V630M452 0V630M542 0V630M632 0V630M722 0V630M812 0V630M902 0V630M992 0V630M1082 0V630"/>
  </g>
  <circle cx="1040" cy="315" r="250" stroke="#F5E6A8" stroke-opacity=".08"/>
  <circle cx="1040" cy="315" r="176" stroke="#F5E6A8" stroke-opacity=".1"/>
  <g transform="translate(72 72)">
    <rect width="78" height="78" rx="18" fill="#F5E6A8"/>
    <path d="M22 53V25M56 53V25M22 39H30L35 27L43 52L49 39H56" stroke="#100E08" stroke-width="5" stroke-linecap="round" stroke-linejoin="round"/>
    <circle cx="56" cy="25" r="4" fill="#100E08"/>
  </g>
  <text x="174" y="106" fill="#FFF9DF" font-family="Inter, Arial, sans-serif" font-size="30" font-weight="700">HealthAI</text>
  <text x="174" y="137" fill="#AA9B68" font-family="Inter, Arial, sans-serif" font-size="14" font-weight="600" letter-spacing="2.4">APOIO À TRIAGEM</text>
  <text x="72" y="260" fill="#FFF9DF" font-family="Inter, Arial, sans-serif" font-size="64" font-weight="700" letter-spacing="-2">
    <tspan x="72" dy="0">Apoio à triagem de risco</tspan>
    <tspan x="72" dy="78" fill="#F5E6A8">de diabetes.</tspan>
  </text>
  <text x="72" y="430" fill="#E4D8A5" font-family="Inter, Arial, sans-serif" font-size="22">
    Probabilidade • referência de atenção • completude • limitações
  </text>
  <path d="M72 500H488" stroke="#D8B957" stroke-width="2"/>
  <text x="72" y="548" fill="#AA9B68" font-family="Inter, Arial, sans-serif" font-size="18">
    Plataforma de apoio. Não realiza diagnóstico.
  </text>
  <text x="1028" y="562" fill="#F5E6A8" font-family="Inter, Arial, sans-serif" font-size="15" font-weight="600" letter-spacing="2">HEALTHAI</text>
</svg>
